<svg width="101" height="101" fill="none" xmlns="http://www.w3.org/2000/svg"><path d="M50.343 100.32A50.361 50.361 0 0 1 3.97 69.685a50 50 0 0 1 10.785-54.99 50.44 50.44 0 0 1 71.175 0 50.168 50.168 0 0 1-35.587 85.625zm0-93.628a43.47 43.47 0 1 0 43.617 43.47 43.593 43.593 0 0 0-43.617-43.47zM30.914 69.796A11.724 11.724 0 0 1 19.188 58.64 11.5 11.5 0 0 1 26.64 47.57a11.343 11.343 0 0 1-1.39-6.663 11.694 11.694 0 0 1 11.645-10.38h14.92a.334.334 0 0 1 .215.586 17.844 17.844 0 0 0-4.23 5.648.757.757 0 0 1-.671.454h-10.42a4.781 4.781 0 0 0-4.749 5.434c.335 2.57 1.87 4.168 4 4.168h7.07a.49.49 0 0 1 .456.668l-2.4 5.422c-.169.418-.627.6-1.535.6h-8.716a4.906 4.906 0 0 0-4.879 4.168 4.784 4.784 0 0 0 4.747 5.429h4.146a9.1 9.1 0 0 0 7.589-3.884c1.846-2.358 3.174-5.5 4.6-9.061.27-.652.542-1.322.806-1.971 1.74-4.283 3.538-8.711 6.334-12.053a15.289 15.289 0 0 1 5.068-4.058 16.278 16.278 0 0 1 7.288-1.552h3.238A11.725 11.725 0 0 1 81.5 41.682a11.492 11.492 0 0 1-7.49 11.07 11.346 11.346 0 0 1 1.39 6.665 11.7 11.7 0 0 1-11.645 10.379H48.868a.334.334 0 0 1-.215-.585 17.828 17.828 0 0 0 4.23-5.65.758.758 0 0 1 .67-.453h10.425a4.78 4.78 0 0 0 4.745-5.434c-.335-2.571-1.868-4.168-4-4.168h-7.07a.49.49 0 0 1-.454-.67l2.4-5.421c.168-.418.627-.6 1.533-.6h8.71a4.905 4.905 0 0 0 4.873-4.165 4.782 4.782 0 0 0-4.749-5.434h-4.13a9.1 9.1 0 0 0-7.59 3.888c-1.846 2.358-3.175 5.5-4.6 9.06-.27.653-.541 1.323-.804 1.97-1.74 4.284-3.538 8.713-6.335 12.054a15.284 15.284 0 0 1-5.067 4.058 16.274 16.274 0 0 1-7.288 1.552h-3.238v-.002z" fill="url(#paint0_linear)"/><defs><linearGradient id="paint0_linear" x1="6.741" y1="77.246" x2="94.683" y2="8.784" gradientUnits="userSpaceOnUse"><stop stop-color="#65CBDF"/><stop offset="1" stop-color="#41BD9D"/></linearGradient></defs></svg>